# Cylinder: 16 around, 8 along, radius=1, height=4
# Quads triangulated with consistent diagonal
v 1.00000000 0.00000000 0.00000000
v 0.92387953 0.38268343 0.00000000
v 0.70710678 0.70710678 0.00000000
v 0.38268343 0.92387953 0.00000000
v 0.00000000 1.00000000 0.00000000
v -0.38268343 0.92387953 0.00000000
v -0.70710678 0.70710678 0.00000000
v -0.92387953 0.38268343 0.00000000
v -1.00000000 0.00000000 0.00000000
v -0.92387953 -0.38268343 0.00000000
v -0.70710678 -0.70710678 0.00000000
v -0.38268343 -0.92387953 0.00000000
v -0.00000000 -1.00000000 0.00000000
v 0.38268343 -0.92387953 0.00000000
v 0.70710678 -0.70710678 0.00000000
v 0.92387953 -0.38268343 0.00000000
v 1.00000000 0.00000000 0.57142857
v 0.92387953 0.38268343 0.57142857
v 0.70710678 0.70710678 0.57142857
v 0.38268343 0.92387953 0.57142857
v 0.00000000 1.00000000 0.57142857
v -0.38268343 0.92387953 0.57142857
v -0.70710678 0.70710678 0.57142857
v -0.92387953 0.38268343 0.57142857
v -1.00000000 0.00000000 0.57142857
v -0.92387953 -0.38268343 0.57142857
v -0.70710678 -0.70710678 0.57142857
v -0.38268343 -0.92387953 0.57142857
v -0.00000000 -1.00000000 0.57142857
v 0.38268343 -0.92387953 0.57142857
v 0.70710678 -0.70710678 0.57142857
v 0.92387953 -0.38268343 0.57142857
v 1.00000000 0.00000000 1.14285714
v 0.92387953 0.38268343 1.14285714
v 0.70710678 0.70710678 1.14285714
v 0.38268343 0.92387953 1.14285714
v 0.00000000 1.00000000 1.14285714
v -0.38268343 0.92387953 1.14285714
v -0.70710678 0.70710678 1.14285714
v -0.92387953 0.38268343 1.14285714
v -1.00000000 0.00000000 1.14285714
v -0.92387953 -0.38268343 1.14285714
v -0.70710678 -0.70710678 1.14285714
v -0.38268343 -0.92387953 1.14285714
v -0.00000000 -1.00000000 1.14285714
v 0.38268343 -0.92387953 1.14285714
v 0.70710678 -0.70710678 1.14285714
v 0.92387953 -0.38268343 1.14285714
v 1.00000000 0.00000000 1.71428571
v 0.92387953 0.38268343 1.71428571
v 0.70710678 0.70710678 1.71428571
v 0.38268343 0.92387953 1.71428571
v 0.00000000 1.00000000 1.71428571
v -0.38268343 0.92387953 1.71428571
v -0.70710678 0.70710678 1.71428571
v -0.92387953 0.38268343 1.71428571
v -1.00000000 0.00000000 1.71428571
v -0.92387953 -0.38268343 1.71428571
v -0.70710678 -0.70710678 1.71428571
v -0.38268343 -0.92387953 1.71428571
v -0.00000000 -1.00000000 1.71428571
v 0.38268343 -0.92387953 1.71428571
v 0.70710678 -0.70710678 1.71428571
v 0.92387953 -0.38268343 1.71428571
v 1.00000000 0.00000000 2.28571429
v 0.92387953 0.38268343 2.28571429
v 0.70710678 0.70710678 2.28571429
v 0.38268343 0.92387953 2.28571429
v 0.00000000 1.00000000 2.28571429
v -0.38268343 0.92387953 2.28571429
v -0.70710678 0.70710678 2.28571429
v -0.92387953 0.38268343 2.28571429
v -1.00000000 0.00000000 2.28571429
v -0.92387953 -0.38268343 2.28571429
v -0.70710678 -0.70710678 2.28571429
v -0.38268343 -0.92387953 2.28571429
v -0.00000000 -1.00000000 2.28571429
v 0.38268343 -0.92387953 2.28571429
v 0.70710678 -0.70710678 2.28571429
v 0.92387953 -0.38268343 2.28571429
v 1.00000000 0.00000000 2.85714286
v 0.92387953 0.38268343 2.85714286
v 0.70710678 0.70710678 2.85714286
v 0.38268343 0.92387953 2.85714286
v 0.00000000 1.00000000 2.85714286
v -0.38268343 0.92387953 2.85714286
v -0.70710678 0.70710678 2.85714286
v -0.92387953 0.38268343 2.85714286
v -1.00000000 0.00000000 2.85714286
v -0.92387953 -0.38268343 2.85714286
v -0.70710678 -0.70710678 2.85714286
v -0.38268343 -0.92387953 2.85714286
v -0.00000000 -1.00000000 2.85714286
v 0.38268343 -0.92387953 2.85714286
v 0.70710678 -0.70710678 2.85714286
v 0.92387953 -0.38268343 2.85714286
v 1.00000000 0.00000000 3.42857143
v 0.92387953 0.38268343 3.42857143
v 0.70710678 0.70710678 3.42857143
v 0.38268343 0.92387953 3.42857143
v 0.00000000 1.00000000 3.42857143
v -0.38268343 0.92387953 3.42857143
v -0.70710678 0.70710678 3.42857143
v -0.92387953 0.38268343 3.42857143
v -1.00000000 0.00000000 3.42857143
v -0.92387953 -0.38268343 3.42857143
v -0.70710678 -0.70710678 3.42857143
v -0.38268343 -0.92387953 3.42857143
v -0.00000000 -1.00000000 3.42857143
v 0.38268343 -0.92387953 3.42857143
v 0.70710678 -0.70710678 3.42857143
v 0.92387953 -0.38268343 3.42857143
v 1.00000000 0.00000000 4.00000000
v 0.92387953 0.38268343 4.00000000
v 0.70710678 0.70710678 4.00000000
v 0.38268343 0.92387953 4.00000000
v 0.00000000 1.00000000 4.00000000
v -0.38268343 0.92387953 4.00000000
v -0.70710678 0.70710678 4.00000000
v -0.92387953 0.38268343 4.00000000
v -1.00000000 0.00000000 4.00000000
v -0.92387953 -0.38268343 4.00000000
v -0.70710678 -0.70710678 4.00000000
v -0.38268343 -0.92387953 4.00000000
v -0.00000000 -1.00000000 4.00000000
v 0.38268343 -0.92387953 4.00000000
v 0.70710678 -0.70710678 4.00000000
v 0.92387953 -0.38268343 4.00000000
f 1 2 18
f 1 18 17
f 2 3 19
f 2 19 18
f 3 4 20
f 3 20 19
f 4 5 21
f 4 21 20
f 5 6 22
f 5 22 21
f 6 7 23
f 6 23 22
f 7 8 24
f 7 24 23
f 8 9 25
f 8 25 24
f 9 10 26
f 9 26 25
f 10 11 27
f 10 27 26
f 11 12 28
f 11 28 27
f 12 13 29
f 12 29 28
f 13 14 30
f 13 30 29
f 14 15 31
f 14 31 30
f 15 16 32
f 15 32 31
f 16 1 17
f 16 17 32
f 17 18 34
f 17 34 33
f 18 19 35
f 18 35 34
f 19 20 36
f 19 36 35
f 20 21 37
f 20 37 36
f 21 22 38
f 21 38 37
f 22 23 39
f 22 39 38
f 23 24 40
f 23 40 39
f 24 25 41
f 24 41 40
f 25 26 42
f 25 42 41
f 26 27 43
f 26 43 42
f 27 28 44
f 27 44 43
f 28 29 45
f 28 45 44
f 29 30 46
f 29 46 45
f 30 31 47
f 30 47 46
f 31 32 48
f 31 48 47
f 32 17 33
f 32 33 48
f 33 34 50
f 33 50 49
f 34 35 51
f 34 51 50
f 35 36 52
f 35 52 51
f 36 37 53
f 36 53 52
f 37 38 54
f 37 54 53
f 38 39 55
f 38 55 54
f 39 40 56
f 39 56 55
f 40 41 57
f 40 57 56
f 41 42 58
f 41 58 57
f 42 43 59
f 42 59 58
f 43 44 60
f 43 60 59
f 44 45 61
f 44 61 60
f 45 46 62
f 45 62 61
f 46 47 63
f 46 63 62
f 47 48 64
f 47 64 63
f 48 33 49
f 48 49 64
f 49 50 66
f 49 66 65
f 50 51 67
f 50 67 66
f 51 52 68
f 51 68 67
f 52 53 69
f 52 69 68
f 53 54 70
f 53 70 69
f 54 55 71
f 54 71 70
f 55 56 72
f 55 72 71
f 56 57 73
f 56 73 72
f 57 58 74
f 57 74 73
f 58 59 75
f 58 75 74
f 59 60 76
f 59 76 75
f 60 61 77
f 60 77 76
f 61 62 78
f 61 78 77
f 62 63 79
f 62 79 78
f 63 64 80
f 63 80 79
f 64 49 65
f 64 65 80
f 65 66 82
f 65 82 81
f 66 67 83
f 66 83 82
f 67 68 84
f 67 84 83
f 68 69 85
f 68 85 84
f 69 70 86
f 69 86 85
f 70 71 87
f 70 87 86
f 71 72 88
f 71 88 87
f 72 73 89
f 72 89 88
f 73 74 90
f 73 90 89
f 74 75 91
f 74 91 90
f 75 76 92
f 75 92 91
f 76 77 93
f 76 93 92
f 77 78 94
f 77 94 93
f 78 79 95
f 78 95 94
f 79 80 96
f 79 96 95
f 80 65 81
f 80 81 96
f 81 82 98
f 81 98 97
f 82 83 99
f 82 99 98
f 83 84 100
f 83 100 99
f 84 85 101
f 84 101 100
f 85 86 102
f 85 102 101
f 86 87 103
f 86 103 102
f 87 88 104
f 87 104 103
f 88 89 105
f 88 105 104
f 89 90 106
f 89 106 105
f 90 91 107
f 90 107 106
f 91 92 108
f 91 108 107
f 92 93 109
f 92 109 108
f 93 94 110
f 93 110 109
f 94 95 111
f 94 111 110
f 95 96 112
f 95 112 111
f 96 81 97
f 96 97 112
f 97 98 114
f 97 114 113
f 98 99 115
f 98 115 114
f 99 100 116
f 99 116 115
f 100 101 117
f 100 117 116
f 101 102 118
f 101 118 117
f 102 103 119
f 102 119 118
f 103 104 120
f 103 120 119
f 104 105 121
f 104 121 120
f 105 106 122
f 105 122 121
f 106 107 123
f 106 123 122
f 107 108 124
f 107 124 123
f 108 109 125
f 108 125 124
f 109 110 126
f 109 126 125
f 110 111 127
f 110 127 126
f 111 112 128
f 111 128 127
f 112 97 113
f 112 113 128
